<svg width="107" height="35" viewBox="0 0 107 35" fill="none" xmlns="http://www.w3.org/2000/svg">
<path d="M5.768 7.696V26.704C5.768 28.576 5.912 29.152 7.496 29.152H8.264C9.848 29.152 9.992 28.576 9.992 26.704V19.984H15.08V27.424C15.08 32.704 13.832 34.24 8.984 34.24H6.488C1.592 34.24 0.344 32.704 0.344 27.424V6.976C0.344 1.696 1.592 0.159998 6.488 0.159998H8.984C13.832 0.159998 15.08 1.696 15.08 6.976V12.976H9.992V7.696C9.992 5.824 9.848 5.248 8.264 5.248H7.496C5.912 5.248 5.768 5.824 5.768 7.696ZM24.9826 11.728H24.4066C23.1586 11.728 22.7266 12.64 22.7266 14.32V34H17.8306V0.399998H22.7266V9.76C23.2546 8.176 24.3586 7.264 26.5186 7.264H27.5746C30.5026 7.264 31.3186 8.56 31.3186 12.016V34H26.4226V13.888C26.4226 12.304 26.2786 11.728 24.9826 11.728ZM39.0391 34H34.1431V7.504H38.7511V11.248C39.1351 8.752 40.2391 7.264 42.2551 7.264H42.5911V12.496H42.2071C39.8551 12.496 39.0391 13.84 39.0391 17.2V34ZM49.1172 7.504V34H44.2213V7.504H49.1172ZM44.2213 4.816V0.399998H49.1172V4.816H44.2213ZM59.9705 27.568V26.512C59.9705 24.592 59.2025 23.968 56.1785 22.048C52.6265 19.888 51.6185 18.256 51.6185 14.8V13.312C51.6185 8.608 52.7705 7.264 57.0905 7.264H59.3945C63.6665 7.264 64.8665 8.608 64.8665 13.312V16.528H60.2585V13.936C60.2585 12.304 60.0665 11.728 58.7225 11.728H58.0505C56.7065 11.728 56.5145 12.304 56.5145 13.936V14.512C56.5145 16.432 57.2825 17.056 60.3065 18.976C63.8585 21.136 64.8665 22.768 64.8665 26.224V28.144C64.8665 32.848 63.6665 34.24 59.3945 34.24H57.0905C52.7705 34.24 51.6185 32.848 51.6185 28.144V24.496H56.2265V27.568C56.2265 29.2 56.3705 29.776 57.7625 29.776H58.4345C59.7785 29.776 59.9705 29.2 59.9705 27.568ZM66.1775 11.584V7.504H67.8575V1.744H72.7535V7.504H75.1055V11.584H72.7535V27.952C72.7535 30.208 72.9455 32.224 73.6175 34H68.4815C67.9535 32.896 67.8575 30.832 67.8575 28.624V11.584H66.1775ZM76.3228 25.216C76.3228 21.856 76.9948 20.032 80.5468 18.688C84.5308 17.152 84.9148 17.008 84.9148 13.984V13.936C84.9148 12.304 84.7228 11.728 83.3788 11.728H82.7548C81.4108 11.728 81.2188 12.304 81.2188 13.936V16.528H76.6588V13.312C76.6588 8.608 77.7628 7.264 82.0828 7.264H84.3388C88.6588 7.264 89.8108 8.608 89.8108 13.312V29.536C89.8108 31.072 89.8108 32.416 90.1948 34H85.5388C85.2988 33.472 85.1548 32.512 85.1068 30.976C84.6748 33.04 83.5708 34.24 81.0748 34.24H80.0668C77.1388 34.24 76.3228 32.944 76.3228 29.488V25.216ZM84.9148 27.184V21.136C84.4828 21.376 84.0508 21.568 83.5228 21.76C81.4588 22.528 81.1708 23.296 81.1708 25.36V27.616C81.1708 29.2 81.3628 29.776 82.6588 29.776H83.2348C84.4828 29.776 84.9148 28.864 84.9148 27.184ZM97.4922 21.952V34H92.5963V0.399998H97.4922V19.024C97.8763 17.776 98.3083 16.72 98.7403 15.664L102.004 7.504H106.66L101.332 19.984L106.948 34H101.86L98.5003 25.072C98.0683 23.872 97.7323 23.056 97.4922 21.952Z" fill="white"/>
</svg>
